<mxfile host="app.diagrams.net" modified="2024-01-02T09:16:33.350Z" agent="Mozilla/5.0 (Windows NT 10.0; Win64; x64) AppleWebKit/537.36 (KHTML, like Gecko) Chrome/92.0.4515.159 Safari/537.36" etag="532AqrvN_E7Hrz2Of-UR" version="22.1.16" type="github">
  <diagram name="第 1 页" id="u7GsR197v2l_s25eN6RV">
    <mxGraphModel dx="1877" dy="558" grid="1" gridSize="10" guides="1" tooltips="1" connect="1" arrows="1" fold="1" page="1" pageScale="1" pageWidth="827" pageHeight="1169" math="0" shadow="0">
      <root>
        <mxCell id="0" />
        <mxCell id="1" parent="0" />
        <mxCell id="j2e7cQYIp7rzYegAii8r-12" style="edgeStyle=orthogonalEdgeStyle;rounded=0;orthogonalLoop=1;jettySize=auto;html=1;" edge="1" parent="1" source="j2e7cQYIp7rzYegAii8r-1" target="j2e7cQYIp7rzYegAii8r-4">
          <mxGeometry relative="1" as="geometry" />
        </mxCell>
        <mxCell id="j2e7cQYIp7rzYegAii8r-1" value="开始" style="rounded=1;whiteSpace=wrap;html=1;" vertex="1" parent="1">
          <mxGeometry x="334" y="40" width="80" height="40" as="geometry" />
        </mxCell>
        <mxCell id="j2e7cQYIp7rzYegAii8r-13" style="edgeStyle=orthogonalEdgeStyle;rounded=0;orthogonalLoop=1;jettySize=auto;html=1;" edge="1" parent="1" source="j2e7cQYIp7rzYegAii8r-4" target="j2e7cQYIp7rzYegAii8r-5">
          <mxGeometry relative="1" as="geometry" />
        </mxCell>
        <mxCell id="j2e7cQYIp7rzYegAii8r-4" value="参数初始化" style="rounded=0;whiteSpace=wrap;html=1;" vertex="1" parent="1">
          <mxGeometry x="314" y="130" width="120" height="60" as="geometry" />
        </mxCell>
        <mxCell id="j2e7cQYIp7rzYegAii8r-14" style="edgeStyle=orthogonalEdgeStyle;rounded=0;orthogonalLoop=1;jettySize=auto;html=1;" edge="1" parent="1" source="j2e7cQYIp7rzYegAii8r-5" target="j2e7cQYIp7rzYegAii8r-9">
          <mxGeometry relative="1" as="geometry" />
        </mxCell>
        <mxCell id="j2e7cQYIp7rzYegAii8r-32" style="edgeStyle=orthogonalEdgeStyle;rounded=0;orthogonalLoop=1;jettySize=auto;html=1;" edge="1" parent="1" source="j2e7cQYIp7rzYegAii8r-5" target="j2e7cQYIp7rzYegAii8r-7">
          <mxGeometry relative="1" as="geometry" />
        </mxCell>
        <mxCell id="j2e7cQYIp7rzYegAii8r-5" value="当前bucket是否为空" style="rhombus;whiteSpace=wrap;html=1;" vertex="1" parent="1">
          <mxGeometry x="334" y="240" width="80" height="80" as="geometry" />
        </mxCell>
        <mxCell id="j2e7cQYIp7rzYegAii8r-17" style="edgeStyle=orthogonalEdgeStyle;rounded=0;orthogonalLoop=1;jettySize=auto;html=1;entryX=0.5;entryY=0;entryDx=0;entryDy=0;" edge="1" parent="1" source="j2e7cQYIp7rzYegAii8r-6" target="j2e7cQYIp7rzYegAii8r-10">
          <mxGeometry relative="1" as="geometry" />
        </mxCell>
        <mxCell id="j2e7cQYIp7rzYegAii8r-6" value="获取bucket对应的旧bucket位置作为遍历对象" style="rounded=0;whiteSpace=wrap;html=1;" vertex="1" parent="1">
          <mxGeometry x="314" y="500" width="120" height="60" as="geometry" />
        </mxCell>
        <mxCell id="j2e7cQYIp7rzYegAii8r-33" style="edgeStyle=orthogonalEdgeStyle;rounded=0;orthogonalLoop=1;jettySize=auto;html=1;entryX=0.5;entryY=0;entryDx=0;entryDy=0;" edge="1" parent="1" source="j2e7cQYIp7rzYegAii8r-7" target="j2e7cQYIp7rzYegAii8r-8">
          <mxGeometry relative="1" as="geometry" />
        </mxCell>
        <mxCell id="j2e7cQYIp7rzYegAii8r-34" value="是" style="edgeLabel;html=1;align=center;verticalAlign=middle;resizable=0;points=[];" vertex="1" connectable="0" parent="j2e7cQYIp7rzYegAii8r-33">
          <mxGeometry x="-0.7" y="-3" relative="1" as="geometry">
            <mxPoint as="offset" />
          </mxGeometry>
        </mxCell>
        <mxCell id="j2e7cQYIp7rzYegAii8r-35" style="edgeStyle=orthogonalEdgeStyle;rounded=0;orthogonalLoop=1;jettySize=auto;html=1;entryX=0;entryY=0.5;entryDx=0;entryDy=0;" edge="1" parent="1" source="j2e7cQYIp7rzYegAii8r-7" target="j2e7cQYIp7rzYegAii8r-9">
          <mxGeometry relative="1" as="geometry">
            <Array as="points">
              <mxPoint x="210" y="420" />
            </Array>
          </mxGeometry>
        </mxCell>
        <mxCell id="j2e7cQYIp7rzYegAii8r-36" value="否" style="edgeLabel;html=1;align=center;verticalAlign=middle;resizable=0;points=[];" vertex="1" connectable="0" parent="j2e7cQYIp7rzYegAii8r-35">
          <mxGeometry x="-0.5411" y="5" relative="1" as="geometry">
            <mxPoint x="-5" as="offset" />
          </mxGeometry>
        </mxCell>
        <mxCell id="j2e7cQYIp7rzYegAii8r-7" value="当前bucket是否为起始bucket且已经从头开始遍历了" style="rhombus;whiteSpace=wrap;html=1;" vertex="1" parent="1">
          <mxGeometry x="170" y="240" width="80" height="80" as="geometry" />
        </mxCell>
        <mxCell id="j2e7cQYIp7rzYegAii8r-8" value="结束" style="rounded=1;whiteSpace=wrap;html=1;" vertex="1" parent="1">
          <mxGeometry x="-110" y="560" width="120" height="60" as="geometry" />
        </mxCell>
        <mxCell id="j2e7cQYIp7rzYegAii8r-15" style="edgeStyle=orthogonalEdgeStyle;rounded=0;orthogonalLoop=1;jettySize=auto;html=1;entryX=0.5;entryY=0;entryDx=0;entryDy=0;" edge="1" parent="1" source="j2e7cQYIp7rzYegAii8r-9" target="j2e7cQYIp7rzYegAii8r-6">
          <mxGeometry relative="1" as="geometry" />
        </mxCell>
        <mxCell id="j2e7cQYIp7rzYegAii8r-20" value="是" style="edgeLabel;html=1;align=center;verticalAlign=middle;resizable=0;points=[];" vertex="1" connectable="0" parent="j2e7cQYIp7rzYegAii8r-15">
          <mxGeometry x="-0.34" y="-2" relative="1" as="geometry">
            <mxPoint as="offset" />
          </mxGeometry>
        </mxCell>
        <mxCell id="j2e7cQYIp7rzYegAii8r-25" style="edgeStyle=orthogonalEdgeStyle;rounded=0;orthogonalLoop=1;jettySize=auto;html=1;entryX=1;entryY=0.5;entryDx=0;entryDy=0;" edge="1" parent="1" source="j2e7cQYIp7rzYegAii8r-9" target="j2e7cQYIp7rzYegAii8r-11">
          <mxGeometry relative="1" as="geometry">
            <Array as="points">
              <mxPoint x="454" y="420" />
              <mxPoint x="454" y="780" />
            </Array>
          </mxGeometry>
        </mxCell>
        <mxCell id="j2e7cQYIp7rzYegAii8r-9" value="是否正在执行等量扩容" style="rhombus;whiteSpace=wrap;html=1;" vertex="1" parent="1">
          <mxGeometry x="334" y="380" width="80" height="80" as="geometry" />
        </mxCell>
        <mxCell id="j2e7cQYIp7rzYegAii8r-18" style="edgeStyle=orthogonalEdgeStyle;rounded=0;orthogonalLoop=1;jettySize=auto;html=1;entryX=0.5;entryY=0;entryDx=0;entryDy=0;" edge="1" parent="1" source="j2e7cQYIp7rzYegAii8r-10" target="j2e7cQYIp7rzYegAii8r-11">
          <mxGeometry relative="1" as="geometry" />
        </mxCell>
        <mxCell id="j2e7cQYIp7rzYegAii8r-19" value="是" style="edgeLabel;html=1;align=center;verticalAlign=middle;resizable=0;points=[];" vertex="1" connectable="0" parent="j2e7cQYIp7rzYegAii8r-18">
          <mxGeometry x="-0.1086" y="-4" relative="1" as="geometry">
            <mxPoint as="offset" />
          </mxGeometry>
        </mxCell>
        <mxCell id="j2e7cQYIp7rzYegAii8r-22" style="edgeStyle=orthogonalEdgeStyle;rounded=0;orthogonalLoop=1;jettySize=auto;html=1;entryX=1;entryY=0.5;entryDx=0;entryDy=0;" edge="1" parent="1" source="j2e7cQYIp7rzYegAii8r-10" target="j2e7cQYIp7rzYegAii8r-21">
          <mxGeometry relative="1" as="geometry" />
        </mxCell>
        <mxCell id="j2e7cQYIp7rzYegAii8r-23" value="否" style="edgeLabel;html=1;align=center;verticalAlign=middle;resizable=0;points=[];" vertex="1" connectable="0" parent="j2e7cQYIp7rzYegAii8r-22">
          <mxGeometry x="0.0054" y="-1" relative="1" as="geometry">
            <mxPoint as="offset" />
          </mxGeometry>
        </mxCell>
        <mxCell id="j2e7cQYIp7rzYegAii8r-10" value="是否迁移完成" style="rhombus;whiteSpace=wrap;html=1;" vertex="1" parent="1">
          <mxGeometry x="334" y="600" width="80" height="80" as="geometry" />
        </mxCell>
        <mxCell id="j2e7cQYIp7rzYegAii8r-28" style="edgeStyle=orthogonalEdgeStyle;rounded=0;orthogonalLoop=1;jettySize=auto;html=1;entryX=0.5;entryY=0;entryDx=0;entryDy=0;" edge="1" parent="1" source="j2e7cQYIp7rzYegAii8r-11" target="j2e7cQYIp7rzYegAii8r-26">
          <mxGeometry relative="1" as="geometry" />
        </mxCell>
        <mxCell id="j2e7cQYIp7rzYegAii8r-11" value="将新bucket位置作为遍历对象，设置checkBucket=noCheck" style="rounded=0;whiteSpace=wrap;html=1;" vertex="1" parent="1">
          <mxGeometry x="314" y="750" width="120" height="60" as="geometry" />
        </mxCell>
        <mxCell id="j2e7cQYIp7rzYegAii8r-27" style="edgeStyle=orthogonalEdgeStyle;rounded=0;orthogonalLoop=1;jettySize=auto;html=1;entryX=0;entryY=0.5;entryDx=0;entryDy=0;exitX=0.5;exitY=1;exitDx=0;exitDy=0;" edge="1" parent="1" source="j2e7cQYIp7rzYegAii8r-21" target="j2e7cQYIp7rzYegAii8r-26">
          <mxGeometry relative="1" as="geometry">
            <mxPoint x="150" y="655" as="sourcePoint" />
            <mxPoint x="204" y="900" as="targetPoint" />
          </mxGeometry>
        </mxCell>
        <mxCell id="j2e7cQYIp7rzYegAii8r-21" value="将checkBucket设置为新bucket的位置" style="rounded=0;whiteSpace=wrap;html=1;" vertex="1" parent="1">
          <mxGeometry x="140" y="620" width="120" height="40" as="geometry" />
        </mxCell>
        <mxCell id="j2e7cQYIp7rzYegAii8r-37" style="edgeStyle=orthogonalEdgeStyle;rounded=0;orthogonalLoop=1;jettySize=auto;html=1;entryX=0.5;entryY=0;entryDx=0;entryDy=0;" edge="1" parent="1" source="j2e7cQYIp7rzYegAii8r-26" target="j2e7cQYIp7rzYegAii8r-29">
          <mxGeometry relative="1" as="geometry" />
        </mxCell>
        <mxCell id="j2e7cQYIp7rzYegAii8r-26" value="bucket++" style="rounded=0;whiteSpace=wrap;html=1;" vertex="1" parent="1">
          <mxGeometry x="326" y="870" width="96" height="30" as="geometry" />
        </mxCell>
        <mxCell id="j2e7cQYIp7rzYegAii8r-31" style="edgeStyle=orthogonalEdgeStyle;rounded=0;orthogonalLoop=1;jettySize=auto;html=1;entryX=0.5;entryY=0;entryDx=0;entryDy=0;" edge="1" parent="1" source="j2e7cQYIp7rzYegAii8r-29" target="j2e7cQYIp7rzYegAii8r-30">
          <mxGeometry relative="1" as="geometry" />
        </mxCell>
        <mxCell id="j2e7cQYIp7rzYegAii8r-29" value="bucket是否是最后一个bucket" style="rhombus;whiteSpace=wrap;html=1;" vertex="1" parent="1">
          <mxGeometry x="334" y="940" width="80" height="80" as="geometry" />
        </mxCell>
        <mxCell id="j2e7cQYIp7rzYegAii8r-30" value="bucket置为第一个bucket，设置wrapped=true" style="rounded=0;whiteSpace=wrap;html=1;" vertex="1" parent="1">
          <mxGeometry x="314" y="1050" width="120" height="60" as="geometry" />
        </mxCell>
        <mxCell id="j2e7cQYIp7rzYegAii8r-38" value="" style="rounded=0;whiteSpace=wrap;html=1;" vertex="1" parent="1">
          <mxGeometry x="314" y="1160" width="120" height="60" as="geometry" />
        </mxCell>
      </root>
    </mxGraphModel>
  </diagram>
</mxfile>
